<svg xmlns="http://www.w3.org/2000/svg" xmlns:xlink="http://www.w3.org/1999/xlink" version="1.1" width="256" height="256" viewBox="0 0 256 256" xml:space="preserve">

<defs>
</defs>
<g style="stroke: none; stroke-width: 0; stroke-dasharray: none; stroke-linecap: butt; stroke-linejoin: miter; stroke-miterlimit: 10; fill: none; fill-rule: nonzero; opacity: 1;" transform="translate(1.4065934065934016 1.4065934065934016) scale(2.81 2.81)" >
	<path d="M 48.713 32.985 l -0.315 0.36 C 52.222 34.515 54 36.203 54 36.203 c -2.34 -1.283 -4.635 -1.913 -6.773 -2.16 c -1.62 -0.18 -3.172 -0.135 -4.545 0.045 c -0.135 0 -0.247 0.023 -0.383 0.045 c -0.787 0.068 -2.7 0.36 -5.107 1.417 c -0.833 0.383 -1.328 0.653 -1.328 0.653 s 1.867 -1.778 5.917 -2.948 l -0.225 -0.27 c 0 0 -3.083 -0.068 -6.323 2.362 c 0 0 -3.24 5.872 -3.24 13.117 c 0 0 1.89 3.263 6.862 3.42 c 0 0 0.833 -1.013 1.508 -1.867 c -2.857 -0.855 -3.938 -2.655 -3.938 -2.655 s 0.225 0.157 0.63 0.383 c 0.023 0.022 0.045 0.045 0.09 0.068 c 0.068 0.045 0.135 0.068 0.202 0.112 c 0.563 0.315 1.125 0.563 1.643 0.765 c 0.922 0.36 2.025 0.72 3.307 0.967 c 1.688 0.315 3.668 0.427 5.828 0.023 c 1.057 -0.18 2.138 -0.495 3.263 -0.968 c 0.787 -0.292 1.665 -0.72 2.587 -1.327 c 0 0 -1.125 1.845 -4.072 2.677 c 0.675 0.855 1.485 1.823 1.485 1.823 c 4.972 -0.158 6.885 -3.42 6.885 -3.42 c 0 -7.245 -3.24 -13.117 -3.24 -13.117 C 51.795 32.917 48.713 32.985 48.713 32.985 z M 40.927 46.372 c -1.26 0 -2.295 -1.125 -2.295 -2.497 s 1.013 -2.497 2.295 -2.497 c 1.283 0 2.318 1.125 2.295 2.497 C 43.222 45.247 42.21 46.372 40.927 46.372 z M 49.14 46.372 c -1.26 0 -2.295 -1.125 -2.295 -2.497 s 1.013 -2.497 2.295 -2.497 c 1.282 0 2.295 1.125 2.295 2.497 S 50.422 46.372 49.14 46.372 z" style="stroke: none; stroke-width: 1; stroke-dasharray: none; stroke-linecap: butt; stroke-linejoin: miter; stroke-miterlimit: 10; fill: rgb(0,0,0); fill-rule: nonzero; opacity: 1;" transform=" matrix(1 0 0 1 0 0) " stroke-linecap="round" />
	<path d="M 88.695 40.131 L 71.064 9.593 c -1.739 -3.013 -4.954 -4.869 -8.433 -4.869 H 27.369 c -3.479 0 -6.693 1.856 -8.433 4.869 L 1.305 40.131 c -1.739 3.013 -1.739 6.725 0 9.737 l 17.631 30.538 c 1.739 3.013 4.954 4.869 8.433 4.869 h 35.263 c 3.479 0 6.693 -1.856 8.433 -4.869 l 17.631 -30.538 C 90.435 46.856 90.435 43.144 88.695 40.131 z M 64.688 67.5 l -4.838 -4.275 l -2.722 -2.52 l -2.88 -2.678 l 1.193 4.163 H 29.925 c -2.542 0 -4.612 -2.07 -4.612 -4.635 v -30.42 c 0 -2.565 2.07 -4.635 4.612 -4.635 h 30.15 c 2.542 0 4.612 2.07 4.612 4.635 V 67.5 z" style="stroke: none; stroke-width: 1; stroke-dasharray: none; stroke-linecap: butt; stroke-linejoin: miter; stroke-miterlimit: 10; fill: rgb(0,0,0); fill-rule: nonzero; opacity: 1;" transform=" matrix(1 0 0 1 0 0) " stroke-linecap="round" />
</g>
</svg>