<svg xmlns="http://www.w3.org/2000/svg" xmlns:xlink="http://www.w3.org/1999/xlink" version="1.1" width="256" height="256" viewBox="0 0 256 256" xml:space="preserve">

<defs>
</defs>
<g style="stroke: none; stroke-width: 0; stroke-dasharray: none; stroke-linecap: butt; stroke-linejoin: miter; stroke-miterlimit: 10; fill: none; fill-rule: nonzero; opacity: 1;" transform="translate(1.4065934065934016 1.4065934065934016) scale(2.81 2.81)" >
	<path d="M 46.286 49.531 C 45.915 49.844 45.458 50 45 50 s -0.915 -0.156 -1.287 -0.469 l -19.054 -16.01 v 25.251 h 40.682 V 33.52 L 46.286 49.531 z" style="stroke: none; stroke-width: 1; stroke-dasharray: none; stroke-linecap: butt; stroke-linejoin: miter; stroke-miterlimit: 10; fill: rgb(0,0,0); fill-rule: nonzero; opacity: 1;" transform=" matrix(1 0 0 1 0 0) " stroke-linecap="round" />
	<polygon points="61.85,31.23 28.15,31.23 45,45.39 " style="stroke: none; stroke-width: 1; stroke-dasharray: none; stroke-linecap: butt; stroke-linejoin: miter; stroke-miterlimit: 10; fill: rgb(0,0,0); fill-rule: nonzero; opacity: 1;" transform="  matrix(1 0 0 1 0 0) "/>
	<path d="M 45 0 C 20.147 0 0 20.147 0 45 c 0 24.853 20.147 45 45 45 s 45 -20.147 45 -45 C 90 20.147 69.853 0 45 0 z M 69.341 60.771 c 0 1.104 -0.896 2 -2 2 H 22.659 c -1.104 0 -2 -0.896 -2 -2 V 29.228 c 0 -0.034 0.008 -0.065 0.01 -0.098 c 0.003 -0.071 0.01 -0.141 0.021 -0.212 c 0.01 -0.062 0.022 -0.123 0.037 -0.183 c 0.016 -0.064 0.036 -0.126 0.059 -0.189 c 0.023 -0.062 0.048 -0.123 0.077 -0.182 c 0.027 -0.056 0.057 -0.111 0.089 -0.165 c 0.037 -0.061 0.076 -0.119 0.119 -0.175 c 0.02 -0.027 0.034 -0.056 0.056 -0.082 c 0.018 -0.022 0.041 -0.037 0.06 -0.058 c 0.047 -0.052 0.097 -0.099 0.15 -0.146 c 0.048 -0.042 0.096 -0.084 0.146 -0.121 c 0.052 -0.038 0.107 -0.071 0.162 -0.104 c 0.056 -0.033 0.112 -0.065 0.171 -0.093 c 0.058 -0.027 0.118 -0.049 0.179 -0.07 c 0.062 -0.022 0.123 -0.042 0.186 -0.058 c 0.061 -0.015 0.123 -0.025 0.186 -0.034 c 0.069 -0.01 0.137 -0.018 0.206 -0.021 c 0.029 -0.001 0.055 -0.008 0.084 -0.008 h 44.682 c 0.031 0 0.059 0.008 0.089 0.009 c 0.066 0.003 0.13 0.01 0.195 0.02 c 0.067 0.01 0.133 0.02 0.197 0.036 c 0.06 0.015 0.118 0.034 0.176 0.055 c 0.064 0.022 0.126 0.045 0.187 0.073 c 0.057 0.027 0.112 0.058 0.166 0.09 c 0.057 0.033 0.112 0.067 0.165 0.106 c 0.051 0.037 0.098 0.078 0.146 0.12 c 0.052 0.046 0.102 0.094 0.149 0.145 c 0.019 0.021 0.042 0.036 0.06 0.058 c 0.022 0.026 0.036 0.056 0.056 0.083 c 0.043 0.056 0.082 0.114 0.119 0.174 c 0.033 0.055 0.063 0.11 0.09 0.166 c 0.028 0.059 0.053 0.118 0.076 0.18 c 0.023 0.063 0.043 0.126 0.059 0.191 c 0.015 0.06 0.027 0.12 0.037 0.181 c 0.011 0.071 0.018 0.142 0.021 0.213 c 0.002 0.033 0.01 0.065 0.01 0.098 V 60.771 z" style="stroke: none; stroke-width: 1; stroke-dasharray: none; stroke-linecap: butt; stroke-linejoin: miter; stroke-miterlimit: 10; fill: rgb(0,0,0); fill-rule: nonzero; opacity: 1;" transform=" matrix(1 0 0 1 0 0) " stroke-linecap="round" />
</g>
</svg>