<svg xmlns="http://www.w3.org/2000/svg" xmlns:xlink="http://www.w3.org/1999/xlink" version="1.1" width="256" height="256" viewBox="0 0 256 256" xml:space="preserve">

<defs>
</defs>
<g style="stroke: none; stroke-width: 0; stroke-dasharray: none; stroke-linecap: butt; stroke-linejoin: miter; stroke-miterlimit: 10; fill: none; fill-rule: nonzero; opacity: 1;" transform="translate(1.4065934065934016 1.4065934065934016) scale(2.81 2.81)" >
	<path d="M 88.695 40.131 L 71.064 9.593 c -1.739 -3.013 -4.954 -4.869 -8.433 -4.869 H 27.369 c -3.479 0 -6.693 1.856 -8.433 4.869 L 1.305 40.131 c -1.739 3.013 -1.739 6.725 0 9.737 l 17.631 30.538 c 1.739 3.013 4.954 4.869 8.433 4.869 h 35.263 c 3.479 0 6.693 -1.856 8.433 -4.869 l 17.631 -30.538 C 90.435 46.856 90.435 43.144 88.695 40.131 z M 52.021 53.877 c 1.094 0.946 2.068 2.802 2.068 5.648 c 0 2.91 -0.018 5.413 -0.028 6.975 c -0.004 0.555 -0.455 1 -1.01 1 H 39.934 c -0.555 0 -1.005 -0.444 -1.01 -0.999 c -0.009 -1.108 -0.023 -2.667 -0.032 -4.285 c -8.484 1.845 -10.275 -3.599 -10.275 -3.599 c -1.387 -3.525 -3.386 -4.462 -3.386 -4.462 c -2.767 -1.893 0.208 -1.854 0.208 -1.854 c 3.062 0.216 4.675 3.143 4.675 3.143 c 2.72 4.662 7.135 3.314 8.875 2.535 c 0.274 -1.971 1.064 -3.317 1.937 -4.078 C 34.151 53.13 27.03 50.515 27.03 38.829 c 0 -3.33 1.192 -6.05 3.143 -8.186 c -0.316 -0.768 -1.36 -3.87 0.296 -8.071 c 0 0 2.561 -0.819 8.389 3.126 c 2.433 -0.675 5.042 -1.015 7.633 -1.027 c 2.592 0.012 5.203 0.35 7.64 1.026 c 5.821 -3.945 8.378 -3.126 8.378 -3.126 c 1.66 4.201 0.616 7.303 0.299 8.071 c 1.956 2.136 3.139 4.857 3.139 8.186 C 65.948 50.543 58.813 53.122 52.021 53.877 z" style="stroke: none; stroke-width: 1; stroke-dasharray: none; stroke-linecap: butt; stroke-linejoin: miter; stroke-miterlimit: 10; fill: rgb(0,0,0); fill-rule: nonzero; opacity: 1;" transform=" matrix(1 0 0 1 0 0) " stroke-linecap="round" />
</g>
</svg>