<svg xmlns="http://www.w3.org/2000/svg" xmlns:xlink="http://www.w3.org/1999/xlink" version="1.1" width="256" height="256" viewBox="0 0 256 256" xml:space="preserve">

<defs>
</defs>
<g style="stroke: none; stroke-width: 0; stroke-dasharray: none; stroke-linecap: butt; stroke-linejoin: miter; stroke-miterlimit: 10; fill: none; fill-rule: nonzero; opacity: 1;" transform="translate(1.4065934065934016 1.4065934065934016) scale(2.81 2.81)" >
	<path d="M 88.695 40.131 L 71.064 9.593 c -1.739 -3.013 -4.954 -4.869 -8.433 -4.869 H 27.369 c -3.479 0 -6.693 1.856 -8.433 4.869 L 1.305 40.131 c -1.739 3.013 -1.739 6.725 0 9.737 l 17.631 30.538 c 1.739 3.013 4.954 4.869 8.433 4.869 h 35.263 c 3.479 0 6.693 -1.856 8.433 -4.869 l 17.631 -30.538 C 90.435 46.856 90.435 43.144 88.695 40.131 z M 67.5 54.214 c 0 7.338 -5.948 13.286 -13.286 13.286 H 35.786 c -7.338 0 -13.286 -5.948 -13.286 -13.286 V 35.785 c 0 -7.337 5.948 -13.285 13.286 -13.285 h 18.429 c 7.338 0 13.286 5.948 13.286 13.285 V 54.214 z" style="stroke: none; stroke-width: 1; stroke-dasharray: none; stroke-linecap: butt; stroke-linejoin: miter; stroke-miterlimit: 10; fill: rgb(0,0,0); fill-rule: nonzero; opacity: 1;" transform=" matrix(1 0 0 1 0 0) " stroke-linecap="round" />
	<path d="M 58.121 28.599 c -1.818 0 -3.293 1.474 -3.293 3.293 c 0 1.818 1.474 3.293 3.293 3.293 c 1.819 0 3.293 -1.474 3.293 -3.293 C 61.414 30.074 59.939 28.599 58.121 28.599 z" style="stroke: none; stroke-width: 1; stroke-dasharray: none; stroke-linecap: butt; stroke-linejoin: miter; stroke-miterlimit: 10; fill: rgb(0,0,0); fill-rule: nonzero; opacity: 1;" transform=" matrix(1 0 0 1 0 0) " stroke-linecap="round" />
	<circle cx="44.999" cy="44.999" r="10.729" style="stroke: none; stroke-width: 1; stroke-dasharray: none; stroke-linecap: butt; stroke-linejoin: miter; stroke-miterlimit: 10; fill: rgb(0,0,0); fill-rule: nonzero; opacity: 1;" transform="  matrix(1 0 0 1 0 0) "/>
</g>
</svg>