<svg xmlns="http://www.w3.org/2000/svg" xmlns:xlink="http://www.w3.org/1999/xlink" version="1.1" width="256" height="256" viewBox="0 0 256 256" xml:space="preserve">

<defs>
</defs>
<g style="stroke: none; stroke-width: 0; stroke-dasharray: none; stroke-linecap: butt; stroke-linejoin: miter; stroke-miterlimit: 10; fill: none; fill-rule: nonzero; opacity: 1;" transform="translate(1.4065934065934016 1.4065934065934016) scale(2.81 2.81)" >
	<path d="M 62.347 55.43 c -2.1 -1.992 -3.738 -2.821 -5.167 -2.621 c -1.583 0.228 -2.938 1.768 -4.304 3.463 c -0.355 0.442 -0.882 0.712 -1.448 0.743 c -0.576 0.03 -1.12 -0.181 -1.521 -0.581 l -8.18 -8.156 c -0.001 -0.001 -0.003 -0.003 -0.004 -0.004 l -8.155 -8.18 c -0.4 -0.402 -0.611 -0.955 -0.581 -1.521 c 0.031 -0.566 0.301 -1.093 0.743 -1.449 c 1.695 -1.364 3.235 -2.72 3.462 -4.303 c 0.205 -1.425 -0.628 -3.067 -2.621 -5.167 c -1.931 -2.035 -3.506 -2.994 -4.93 -2.994 c -0.086 0 -0.171 0.003 -0.256 0.01 c -1.998 0.164 -3.527 2.361 -4.157 4.467 c -0.822 2.749 -0.753 5.917 0.198 9.162 c 0.804 2.737 2.243 5.589 4.402 8.718 c 1.777 2.576 3.789 4.989 5.979 7.172 c 2.189 2.197 4.603 4.209 7.177 5.984 c 3.131 2.159 5.982 3.6 8.718 4.401 c 3.246 0.952 6.414 1.022 9.162 0.199 c 2.106 -0.63 4.304 -2.16 4.468 -4.158 C 65.452 59.124 64.504 57.477 62.347 55.43 z" style="stroke: none; stroke-width: 1; stroke-dasharray: none; stroke-linecap: butt; stroke-linejoin: miter; stroke-miterlimit: 10; fill: rgb(0,0,0); fill-rule: nonzero; opacity: 1;" transform=" matrix(1 0 0 1 0 0) " stroke-linecap="round" />
	<path d="M 45 0 C 20.147 0 0 20.147 0 45 c 0 24.853 20.147 45 45 45 s 45 -20.147 45 -45 C 90 20.147 69.853 0 45 0 z M 69.317 60.94 c -0.339 4.146 -4.148 6.721 -7.308 7.665 c -1.644 0.491 -3.39 0.736 -5.192 0.736 c -2.029 0 -4.131 -0.31 -6.242 -0.93 c -3.149 -0.923 -6.375 -2.541 -9.863 -4.946 c -2.776 -1.914 -5.378 -4.084 -7.734 -6.448 c -2.358 -2.351 -4.528 -4.952 -6.444 -7.729 c -2.403 -3.485 -4.022 -6.711 -4.947 -9.864 c -1.17 -3.989 -1.237 -7.942 -0.192 -11.435 c 0.944 -3.159 3.518 -6.968 7.663 -7.307 c 3.666 -0.306 6.56 2.263 8.414 4.217 c 1.826 1.924 4.194 4.898 3.678 8.488 c -0.323 2.25 -1.644 3.945 -3.225 5.411 L 51.2 52.075 c 1.466 -1.582 3.161 -2.902 5.411 -3.226 c 3.595 -0.516 6.563 1.852 8.488 3.678 C 67.054 54.382 69.617 57.271 69.317 60.94 z" style="stroke: none; stroke-width: 1; stroke-dasharray: none; stroke-linecap: butt; stroke-linejoin: miter; stroke-miterlimit: 10; fill: rgb(0,0,0); fill-rule: nonzero; opacity: 1;" transform=" matrix(1 0 0 1 0 0) " stroke-linecap="round" />
</g>
</svg>