<svg xmlns="http://www.w3.org/2000/svg" xmlns:xlink="http://www.w3.org/1999/xlink" version="1.1" width="256" height="256" viewBox="0 0 256 256" xml:space="preserve">

<defs>
</defs>
<g style="stroke: none; stroke-width: 0; stroke-dasharray: none; stroke-linecap: butt; stroke-linejoin: miter; stroke-miterlimit: 10; fill: none; fill-rule: nonzero; opacity: 1;" transform="translate(1.4065934065934016 1.4065934065934016) scale(2.81 2.81)" >
	<path d="M 45.636 35.554 c 3.623 0.344 6.041 3.034 6.121 3.137 c 1.111 1.488 3.216 1.803 4.716 0.701 c 1.506 -1.107 1.829 -3.225 0.722 -4.731 c -0.176 -0.239 -4.401 -5.875 -11.558 -5.875 c -11.335 0 -12.216 7.067 -12.216 9.232 c 0 6.955 6.521 8.505 10.837 9.532 c 5.091 1.21 6.356 2.254 6.19 3.676 c -0.135 1.164 -1.182 2.528 -5.766 2.383 c -3.807 -0.121 -6.494 -3.207 -6.504 -3.219 c -1.165 -1.461 -3.294 -1.701 -4.756 -0.536 c -1.462 1.165 -1.701 3.294 -0.536 4.756 c 0.188 0.235 4.681 5.768 11.796 5.768 c 2.315 0 5.002 -0.138 7.376 -1.16 c 3.327 -1.432 5.159 -4.27 5.159 -7.991 c 0 -7.552 -6.855 -9.182 -11.392 -10.261 c -4.858 -1.155 -5.635 -1.675 -5.635 -3.223 C 40.188 36.282 42.895 35.294 45.636 35.554 z" style="stroke: none; stroke-width: 1; stroke-dasharray: none; stroke-linecap: butt; stroke-linejoin: miter; stroke-miterlimit: 10; fill: rgb(0,0,0); fill-rule: nonzero; opacity: 1;" transform=" matrix(1 0 0 1 0 0) " stroke-linecap="round" />
	<path d="M 88.695 40.131 L 71.064 9.593 c -1.739 -3.013 -4.954 -4.869 -8.433 -4.869 H 27.369 c -3.479 0 -6.693 1.856 -8.433 4.869 L 1.305 40.131 c -1.739 3.013 -1.739 6.725 0 9.737 l 17.631 30.538 c 1.739 3.013 4.954 4.869 8.433 4.869 h 35.263 c 3.479 0 6.693 -1.856 8.433 -4.869 l 17.631 -30.538 C 90.435 46.856 90.435 43.144 88.695 40.131 z M 70.759 55.943 c -0.285 5.498 -4.707 10 -10.2 10.378 c -1.308 0.09 -2.57 -0.05 -3.752 -0.383 c -1.338 -0.377 -2.768 -0.285 -4.072 0.194 C 50.323 67.016 47.718 67.5 45 67.5 c -12.426 0 -22.5 -10.074 -22.5 -22.5 c 0 -0.009 0 -0.017 0 -0.025 c 0.002 -1.395 -0.377 -2.776 -1.195 -3.906 c -1.413 -1.953 -2.2 -4.388 -2.064 -7.012 c 0.285 -5.499 4.707 -10.001 10.2 -10.379 c 1.308 -0.09 2.57 0.05 3.752 0.383 c 1.338 0.377 2.768 0.285 4.072 -0.194 C 39.677 22.984 42.282 22.5 45 22.5 c 12.427 0 22.5 10.074 22.5 22.5 c 0 0.009 0 0.017 0 0.025 c -0.002 1.395 0.377 2.776 1.195 3.906 C 70.108 50.883 70.895 53.318 70.759 55.943 z" style="stroke: none; stroke-width: 1; stroke-dasharray: none; stroke-linecap: butt; stroke-linejoin: miter; stroke-miterlimit: 10; fill: rgb(0,0,0); fill-rule: nonzero; opacity: 1;" transform=" matrix(1 0 0 1 0 0) " stroke-linecap="round" />
</g>
</svg>