<svg xmlns="http://www.w3.org/2000/svg" xmlns:xlink="http://www.w3.org/1999/xlink" version="1.1" width="256" height="256" viewBox="0 0 256 256" xml:space="preserve">

<defs>
</defs>
<g style="stroke: none; stroke-width: 0; stroke-dasharray: none; stroke-linecap: butt; stroke-linejoin: miter; stroke-miterlimit: 10; fill: none; fill-rule: nonzero; opacity: 1;" transform="translate(1.4065934065934016 1.4065934065934016) scale(2.81 2.81)" >
	<path d="M 57.953 48.804 l -0.29 -0.142 c -0.033 -0.016 -3.26 -1.62 -3.902 -1.853 c -0.459 -0.168 -1.527 -0.555 -2.31 0.625 c -0.308 0.461 -1.223 1.55 -1.687 2.079 c -0.033 -0.013 -0.077 -0.032 -0.134 -0.061 c -0.102 -0.051 -0.241 -0.112 -0.412 -0.186 c -0.769 -0.333 -2.199 -0.953 -3.872 -2.445 c -1.445 -1.289 -2.461 -2.864 -2.897 -3.609 c 0.028 -0.029 0.058 -0.059 0.077 -0.079 c 0.186 -0.185 0.402 -0.444 0.615 -0.704 l 0.27 -0.325 c 0.312 -0.364 0.454 -0.654 0.605 -0.962 l 0.074 -0.151 c 0.279 -0.561 0.264 -1.16 -0.047 -1.778 c -0.088 -0.18 -0.651 -1.552 -1.063 -2.554 l -0.63 -1.528 c -0.559 -1.344 -1.352 -1.546 -2.041 -1.51 c -0.338 -0.016 -0.725 -0.02 -1.112 -0.02 c -0.374 0 -1.332 0.096 -2.15 0.989 l -0.102 0.109 c -0.624 0.665 -2.084 2.224 -2.084 5.146 c 0 2.73 1.713 5.312 2.449 6.296 l 0.087 0.122 c 1.622 2.326 5.053 6.535 9.8 8.584 c 1.307 0.565 2.34 0.913 3.261 1.206 c 0.889 0.283 1.714 0.372 2.428 0.372 c 0.576 0 1.08 -0.058 1.487 -0.119 c 1.19 -0.177 3.848 -1.48 4.476 -3.237 c 0.425 -1.194 0.647 -2.751 0.25 -3.412 C 58.85 49.237 58.435 49.036 57.953 48.804 z" style="stroke: none; stroke-width: 1; stroke-dasharray: none; stroke-linecap: butt; stroke-linejoin: miter; stroke-miterlimit: 10; fill: rgb(0,0,0); fill-rule: nonzero; opacity: 1;" transform=" matrix(1 0 0 1 0 0) " stroke-linecap="round" />
	<path d="M 88.695 40.131 L 71.064 9.593 c -1.739 -3.013 -4.954 -4.869 -8.433 -4.869 H 27.369 c -3.479 0 -6.693 1.856 -8.433 4.869 L 1.305 40.131 c -1.739 3.013 -1.739 6.725 0 9.737 l 17.631 30.538 c 1.739 3.013 4.954 4.869 8.433 4.869 h 35.263 c 3.479 0 6.693 -1.856 8.433 -4.869 l 17.631 -30.538 C 90.435 46.856 90.435 43.144 88.695 40.131 z M 47.094 67.113 h -0.009 c -3.732 -0.001 -7.399 -0.938 -10.656 -2.714 L 24.608 67.5 l 3.163 -11.555 c -1.951 -3.382 -2.978 -7.218 -2.977 -11.148 C 24.8 32.503 34.803 22.5 47.094 22.5 c 5.965 0.002 11.564 2.324 15.774 6.539 c 4.21 4.215 6.527 9.817 6.524 15.775 C 69.387 57.109 59.383 67.113 47.094 67.113 z" style="stroke: none; stroke-width: 1; stroke-dasharray: none; stroke-linecap: butt; stroke-linejoin: miter; stroke-miterlimit: 10; fill: rgb(0,0,0); fill-rule: nonzero; opacity: 1;" transform=" matrix(1 0 0 1 0 0) " stroke-linecap="round" />
</g>
</svg>